<?xml version="1.0" encoding="utf-8"?>
<!-- Generator: Adobe Illustrator 22.0.1, SVG Export Plug-In . SVG Version: 6.00 Build 0)  -->
<svg version="1.1" id="Layer_1" xmlns="http://www.w3.org/2000/svg" xmlns:xlink="http://www.w3.org/1999/xlink" x="0px" y="0px"
	 viewBox="0 0 49.6 47.8" style="enable-background:new 0 0 49.6 47.8;" xml:space="preserve">
<path d="M20.7,25.4c-4.8,2.7-9.7,5.5-14.5,8.2c-0.3,0.2-0.5,0.3-0.8,0.4c0,4.5,0,8.9,0,13.4c0.4-0.2,0.8-0.4,1.1-0.6
	c4.7-2.7,9.3-5.5,14-8.2c1.4-0.8,2.4-2.9,2.5-6.7c0.1-3.4,0.1-6.9,0-10.4C22.6,23.5,21.8,24.8,20.7,25.4z"/>
<path d="M20.7,4.9c-4.8,2.7-9.7,5.5-14.5,8.2c-0.3,0.2-0.5,0.3-0.8,0.4c0,4.6,0,9.1,0,13.7c0.4-0.2,0.8-0.4,1.1-0.6
	c4.7-2.7,9.3-5.5,14-8.2c1.4-0.8,2.4-2.9,2.5-6.7C23.1,8.2,23,4.6,23,1C22.6,3,21.8,4.3,20.7,4.9z"/>
<path d="M42,4.9c-4.8,2.7-9.7,5.5-14.5,8.2c-0.3,0.2-0.5,0.3-0.8,0.4c0,4.6,0,9.1,0,13.7c0.4-0.2,0.8-0.4,1.1-0.6
	c4.7-2.7,9.3-5.5,14-8.2c1.4-0.8,2.4-2.9,2.5-6.7c0.1-3.5,0.1-7.1,0-10.7C43.8,3,43,4.3,42,4.9z"/>
</svg>
