<?xml version="1.0" encoding="utf-8"?>
<!-- Generator: Adobe Illustrator 22.0.1, SVG Export Plug-In . SVG Version: 6.00 Build 0)  -->
<svg version="1.1" id="Layer_1" xmlns="http://www.w3.org/2000/svg" xmlns:xlink="http://www.w3.org/1999/xlink" x="0px" y="0px"
	 viewBox="0 0 99.3 65.9" style="enable-background:new 0 0 99.3 65.9;" xml:space="preserve">
<style type="text/css">
	.st0{fill:#121212;}
</style>
<path class="st0" d="M88.3,23.1L88.3,23.1c0-4.1-3.5-7.4-7.7-7.4H57.5c-1.4,0-2.8,0.4-4,1.1c1.3-2.4,3.9-4.1,6.9-4.1h23.1
	c4.2,0,7.7,3.3,7.7,7.4c0,2.7-1.5,5-3.7,6.3C88,25.4,88.3,24.3,88.3,23.1z"/>
<path class="st0" d="M88.3,46.4L88.3,46.4c0-4.1-3.5-7.4-7.7-7.4H57.5c-1.4,0-2.8,0.4-4,1.1c1.3-2.4,3.9-4.1,6.9-4.1h23.1
	c4.2,0,7.7,3.3,7.7,7.4c0,2.7-1.5,5-3.7,6.3C88,48.7,88.3,47.6,88.3,46.4z"/>
<path class="st0" d="M45.9,22.6c0-4.2-3.5-7.7-7.7-7.7H9.1c-1.4,0-2.8,0.4-4,1.1c1.3-2.5,3.9-4.3,6.9-4.3h29.1
	c4.2,0,7.7,3.5,7.7,7.7c0,2.8-1.5,5.2-3.7,6.6C45.6,25,45.9,23.8,45.9,22.6z"/>
<g>
	<path class="st0" d="M30.3,27.3L30.3,27.3l0,15.5c0,3.4-2.2,6.2-5.2,7.3c1.3-1.4,2-3.2,2-5.2V30.4C27.1,28.7,28.5,27.3,30.3,27.3z"
		/>
</g>
</svg>
