<?xml version="1.0" encoding="utf-8"?>
<!-- Generator: Adobe Illustrator 22.0.1, SVG Export Plug-In . SVG Version: 6.00 Build 0)  -->
<svg version="1.1" id="Layer_1" xmlns="http://www.w3.org/2000/svg" xmlns:xlink="http://www.w3.org/1999/xlink" x="0px" y="0px"
	 viewBox="0 0 60.9 52.3" style="enable-background:new 0 0 60.9 52.3;" xml:space="preserve">
<style type="text/css">
	.st0{enable-background:new    ;}
	.st1{clip-path:url(#SVGID_2_);fill:none;stroke:#000000;stroke-width:0.25;stroke-miterlimit:10;}
	.st2{clip-path:url(#SVGID_4_);fill:none;stroke:#000000;stroke-width:0.25;stroke-miterlimit:10;}
	.st3{clip-path:url(#SVGID_6_);enable-background:new    ;}
	.st4{fill:none;stroke:#000000;stroke-width:0.25;stroke-miterlimit:10;}
	.st5{clip-path:url(#SVGID_6_);fill:none;stroke:#000000;stroke-width:0.25;stroke-miterlimit:10;}
	.st6{clip-path:url(#SVGID_8_);enable-background:new    ;}
	.st7{clip-path:url(#SVGID_8_);fill:none;stroke:#000000;stroke-width:0.25;stroke-miterlimit:10;}
	.st8{clip-path:url(#SVGID_10_);fill:none;stroke:#000000;stroke-width:0.25;stroke-miterlimit:10;}
	.st9{clip-path:url(#SVGID_12_);enable-background:new    ;}
	.st10{clip-path:url(#SVGID_12_);fill:none;stroke:#000000;stroke-width:0.25;stroke-miterlimit:10;}
	.st11{clip-path:url(#SVGID_14_);fill:none;stroke:#000000;stroke-width:0.25;stroke-miterlimit:10;}
	.st12{clip-path:url(#SVGID_16_);enable-background:new    ;}
	.st13{clip-path:url(#SVGID_16_);fill:none;stroke:#000000;stroke-width:0.25;stroke-miterlimit:10;}
	.st14{clip-path:url(#SVGID_18_);enable-background:new    ;}
	.st15{clip-path:url(#SVGID_18_);fill:none;stroke:#000000;stroke-width:0.25;stroke-miterlimit:10;}
	.st16{clip-path:url(#SVGID_20_);fill:none;stroke:#000000;stroke-width:0.25;stroke-miterlimit:10;}
	.st17{clip-path:url(#SVGID_22_);enable-background:new    ;}
	.st18{clip-path:url(#SVGID_22_);fill:none;stroke:#000000;stroke-width:0.25;stroke-miterlimit:10;}
	.st19{clip-path:url(#SVGID_24_);fill:none;stroke:#000000;stroke-width:0.25;stroke-miterlimit:10;}
	.st20{clip-path:url(#SVGID_26_);fill:none;stroke:#000000;stroke-width:0.25;stroke-miterlimit:10;}
	.st21{clip-path:url(#SVGID_28_);fill:none;stroke:#000000;stroke-width:0.25;stroke-miterlimit:10;}
	.st22{clip-path:url(#SVGID_30_);enable-background:new    ;}
	.st23{clip-path:url(#SVGID_30_);fill:none;stroke:#000000;stroke-width:0.25;stroke-miterlimit:10;}
	.st24{clip-path:url(#SVGID_32_);enable-background:new    ;}
	.st25{clip-path:url(#SVGID_32_);fill:none;stroke:#000000;stroke-width:0.25;stroke-miterlimit:10;}
	.st26{clip-path:url(#SVGID_34_);fill:none;stroke:#000000;stroke-width:0.25;stroke-miterlimit:10;}
	.st27{clip-path:url(#SVGID_36_);enable-background:new    ;}
	.st28{clip-path:url(#SVGID_36_);fill:none;stroke:#000000;stroke-width:0.25;stroke-miterlimit:10;}
	.st29{clip-path:url(#SVGID_38_);fill:none;stroke:#000000;stroke-width:0.25;stroke-miterlimit:10;}
	.st30{clip-path:url(#SVGID_40_);enable-background:new    ;}
	.st31{clip-path:url(#SVGID_40_);fill:none;stroke:#000000;stroke-width:0.25;stroke-miterlimit:10;}
	.st32{clip-path:url(#SVGID_42_);enable-background:new    ;}
	.st33{clip-path:url(#SVGID_42_);fill:none;stroke:#000000;stroke-width:0.25;stroke-miterlimit:10;}
	.st34{clip-path:url(#SVGID_44_);fill:none;stroke:#000000;stroke-width:0.25;stroke-miterlimit:10;}
	.st35{clip-path:url(#SVGID_46_);enable-background:new    ;}
	.st36{clip-path:url(#SVGID_46_);fill:none;stroke:#000000;stroke-width:0.25;stroke-miterlimit:10;}
	.st37{clip-path:url(#SVGID_48_);fill:none;stroke:#000000;stroke-width:0.25;stroke-miterlimit:10;}
</style>
<g>
	<g>
		<g class="st0">
			<g class="st0">
				<defs>
					<path id="SVGID_1_" class="st0" d="M49.2,1.7c3.1,0,5.7,2.5,5.7,5.6l0,4.7c0,3.1-2.5,5.7-5.7,5.7l-40,0.5
						c-3.1,0-5.7-2.5-5.7-5.6l0-4.7c0-3.1,2.5-5.7,5.7-5.7L49.2,1.7z"/>
				</defs>
				<clipPath id="SVGID_2_">
					<use xlink:href="#SVGID_1_"  style="overflow:visible;"/>
				</clipPath>
				<path class="st1" d="M49.2,1.7c3.1,0,5.7,2.5,5.7,5.6l0,4.7c0,3.1-2.5,5.7-5.7,5.7l-40,0.5c-3.1,0-5.7-2.5-5.7-5.6l0-4.7
					c0-3.1,2.5-5.7,5.7-5.7L49.2,1.7z"/>
			</g>
			<g class="st0">
				<defs>
					<path id="SVGID_3_" class="st0" d="M52.8,7.2c3.1,0,5.7,2.5,5.7,5.6l0,4.7c0,3.1-2.5,5.7-5.7,5.7l-40,0.5
						c-3.1,0-5.7-2.5-5.7-5.6l0-4.7c0-3.1,2.5-5.7,5.7-5.7L52.8,7.2z"/>
				</defs>
				<clipPath id="SVGID_4_">
					<use xlink:href="#SVGID_3_"  style="overflow:visible;"/>
				</clipPath>
				<path class="st2" d="M52.8,7.2c3.1,0,5.7,2.5,5.7,5.6l0,4.7c0,3.1-2.5,5.7-5.7,5.7l-40,0.5c-3.1,0-5.7-2.5-5.7-5.6l0-4.7
					c0-3.1,2.5-5.7,5.7-5.7L52.8,7.2z"/>
			</g>
			<g class="st0">
				<defs>
					<path id="SVGID_5_" class="st0" d="M57.6,9.8c0.6,0.9,0.9,1.9,0.9,3l-3.6-5.5c0-1.1-0.3-2.2-0.9-3C55.1,5.9,56.5,8.1,57.6,9.8z
						"/>
				</defs>
				<clipPath id="SVGID_6_">
					<use xlink:href="#SVGID_5_"  style="overflow:visible;"/>
				</clipPath>
				<g class="st3">
					<g>
						<path class="st4" d="M52.8,7.2l-3.6-5.5c3.1,0,5.7,2.5,5.7,5.6l3.6,5.5C58.5,9.7,55.9,7.2,52.8,7.2z"/>
						<line class="st4" x1="57.7" y1="10" x2="54.1" y2="4.5"/>
					</g>
				</g>
				<path class="st5" d="M57.6,9.8c0.6,0.9,0.9,1.9,0.9,3l-3.6-5.5c0-1.1-0.3-2.2-0.9-3C55.1,5.9,56.5,8.1,57.6,9.8z"/>
			</g>
			<g class="st0">
				<defs>
					<path id="SVGID_7_" class="st0" d="M54,4.3l3.6,5.5c-1-1.6-2.8-2.6-4.8-2.6l-3.6-5.5C51.2,1.7,53,2.8,54,4.3z"/>
				</defs>
				<clipPath id="SVGID_8_">
					<use xlink:href="#SVGID_7_"  style="overflow:visible;"/>
				</clipPath>
				<g class="st6">
					<g>
						<path class="st4" d="M52.8,7.2l-3.6-5.5c3.1,0,5.7,2.5,5.7,5.6l3.6,5.5C58.5,9.7,55.9,7.2,52.8,7.2z"/>
						<line class="st4" x1="55.7" y1="7.9" x2="52.1" y2="2.5"/>
					</g>
				</g>
				<path class="st7" d="M54,4.3l3.6,5.5c-1-1.6-2.8-2.6-4.8-2.6l-3.6-5.5C51.2,1.7,53,2.8,54,4.3z"/>
			</g>
			<g class="st0">
				<defs>
					<polygon id="SVGID_9_" class="st0" points="58.5,12.8 58.5,17.4 55,12 54.9,7.3 					"/>
				</defs>
				<clipPath id="SVGID_10_">
					<use xlink:href="#SVGID_9_"  style="overflow:visible;"/>
				</clipPath>
				<polygon class="st8" points="58.5,12.8 58.5,17.4 55,12 54.9,7.3 				"/>
			</g>
			<g class="st0">
				<defs>
					<path id="SVGID_11_" class="st0" d="M58.5,17.4c0,3.1-2.5,5.7-5.7,5.7l-3.6-5.5c3.1,0,5.7-2.6,5.7-5.7L58.5,17.4z"/>
				</defs>
				<clipPath id="SVGID_12_">
					<use xlink:href="#SVGID_11_"  style="overflow:visible;"/>
				</clipPath>
				<g class="st9">
					<g>
						<path class="st4" d="M58.5,17.4L55,12c0,3.1-2.5,5.7-5.7,5.7l3.6,5.5C56,23.1,58.5,20.6,58.5,17.4z"/>
						<line class="st4" x1="57.8" y1="20.3" x2="54.2" y2="14.8"/>
						<line class="st4" x1="55.7" y1="22.4" x2="52.2" y2="16.9"/>
					</g>
				</g>
				<path class="st10" d="M58.5,17.4c0,3.1-2.5,5.7-5.7,5.7l-3.6-5.5c3.1,0,5.7-2.6,5.7-5.7L58.5,17.4z"/>
			</g>
			<g class="st0">
				<defs>
					<polygon id="SVGID_13_" class="st0" points="52.9,23.2 12.8,23.6 9.3,18.2 49.3,17.7 					"/>
				</defs>
				<clipPath id="SVGID_14_">
					<use xlink:href="#SVGID_13_"  style="overflow:visible;"/>
				</clipPath>
				<polygon class="st11" points="52.9,23.2 12.8,23.6 9.3,18.2 49.3,17.7 				"/>
			</g>
			<g class="st0">
				<defs>
					<path id="SVGID_15_" class="st0" d="M8.1,21.1l-3.6-5.5c-0.6-0.9-0.9-1.9-0.9-3L7.2,18C7.2,19.2,7.5,20.2,8.1,21.1z"/>
				</defs>
				<clipPath id="SVGID_16_">
					<use xlink:href="#SVGID_15_"  style="overflow:visible;"/>
				</clipPath>
				<g class="st12">
					<g>
						<path class="st4" d="M12.8,23.6l-3.6-5.5c-3.1,0-5.7-2.5-5.7-5.6L7.2,18C7.2,21.2,9.7,23.7,12.8,23.6z"/>
						<line class="st4" x1="7.9" y1="20.9" x2="4.4" y2="15.4"/>
					</g>
				</g>
				<path class="st13" d="M8.1,21.1l-3.6-5.5c-0.6-0.9-0.9-1.9-0.9-3L7.2,18C7.2,19.2,7.5,20.2,8.1,21.1z"/>
			</g>
			<g class="st0">
				<defs>
					<path id="SVGID_17_" class="st0" d="M4.5,15.6c1,1.6,2.8,2.6,4.8,2.6l3.6,5.5c-2,0-3.8-1-4.8-2.6C7,19.4,5.6,17.3,4.5,15.6z"/>
				</defs>
				<clipPath id="SVGID_18_">
					<use xlink:href="#SVGID_17_"  style="overflow:visible;"/>
				</clipPath>
				<g class="st14">
					<g>
						<path class="st4" d="M12.8,23.6l-3.6-5.5c-3.1,0-5.7-2.5-5.7-5.6L7.2,18C7.2,21.2,9.7,23.7,12.8,23.6z"/>
						<line class="st4" x1="10" y1="22.9" x2="6.4" y2="17.4"/>
					</g>
				</g>
				<path class="st15" d="M4.5,15.6c1,1.6,2.8,2.6,4.8,2.6l3.6,5.5c-2,0-3.8-1-4.8-2.6C7,19.4,5.6,17.3,4.5,15.6z"/>
			</g>
			<g class="st0">
				<defs>
					<polygon id="SVGID_19_" class="st0" points="7.2,18 3.6,12.6 3.6,7.9 7.1,13.4 					"/>
				</defs>
				<clipPath id="SVGID_20_">
					<use xlink:href="#SVGID_19_"  style="overflow:visible;"/>
				</clipPath>
				<polygon class="st16" points="7.2,18 3.6,12.6 3.6,7.9 7.1,13.4 				"/>
			</g>
			<g class="st0">
				<defs>
					<path id="SVGID_21_" class="st0" d="M7.1,13.4L3.6,7.9c0-3.1,2.5-5.7,5.7-5.7l3.6,5.5C9.7,7.7,7.1,10.3,7.1,13.4z"/>
				</defs>
				<clipPath id="SVGID_22_">
					<use xlink:href="#SVGID_21_"  style="overflow:visible;"/>
				</clipPath>
				<g class="st17">
					<g>
						<path class="st4" d="M7.1,13.4L3.6,7.9c0-3.1,2.5-5.7,5.7-5.7l3.6,5.5C9.7,7.7,7.1,10.3,7.1,13.4z"/>
						<line class="st4" x1="7.9" y1="10.5" x2="4.3" y2="5.1"/>
						<line class="st4" x1="9.9" y1="8.5" x2="6.4" y2="3"/>
					</g>
				</g>
				<path class="st18" d="M7.1,13.4L3.6,7.9c0-3.1,2.5-5.7,5.7-5.7l3.6,5.5C9.7,7.7,7.1,10.3,7.1,13.4z"/>
			</g>
			<g class="st0">
				<defs>
					<polygon id="SVGID_23_" class="st0" points="12.8,7.7 9.2,2.2 49.2,1.7 52.8,7.2 					"/>
				</defs>
				<clipPath id="SVGID_24_">
					<use xlink:href="#SVGID_23_"  style="overflow:visible;"/>
				</clipPath>
				<polygon class="st19" points="12.8,7.7 9.2,2.2 49.2,1.7 52.8,7.2 				"/>
			</g>
		</g>
	</g>
</g>
<g>
	<g>
		<g class="st0">
			<g class="st0">
				<defs>
					<path id="SVGID_25_" class="st0" d="M49.2,29.3c3.1,0,5.7,2.5,5.7,5.6l0,4.7c0,3.1-2.5,5.7-5.7,5.7l-40,0.5
						c-3.1,0-5.7-2.5-5.7-5.6l0-4.7c0-3.1,2.5-5.7,5.7-5.7L49.2,29.3z"/>
				</defs>
				<clipPath id="SVGID_26_">
					<use xlink:href="#SVGID_25_"  style="overflow:visible;"/>
				</clipPath>
				<path class="st20" d="M49.2,29.3c3.1,0,5.7,2.5,5.7,5.6l0,4.7c0,3.1-2.5,5.7-5.7,5.7l-40,0.5c-3.1,0-5.7-2.5-5.7-5.6l0-4.7
					c0-3.1,2.5-5.7,5.7-5.7L49.2,29.3z"/>
			</g>
			<g class="st0">
				<defs>
					<path id="SVGID_27_" class="st0" d="M52.8,34.8c3.1,0,5.7,2.5,5.7,5.6l0,4.7c0,3.1-2.5,5.7-5.7,5.7l-40,0.5
						c-3.1,0-5.7-2.5-5.7-5.6l0-4.7c0-3.1,2.5-5.7,5.7-5.7L52.8,34.8z"/>
				</defs>
				<clipPath id="SVGID_28_">
					<use xlink:href="#SVGID_27_"  style="overflow:visible;"/>
				</clipPath>
				<path class="st21" d="M52.8,34.8c3.1,0,5.7,2.5,5.7,5.6l0,4.7c0,3.1-2.5,5.7-5.7,5.7l-40,0.5c-3.1,0-5.7-2.5-5.7-5.6l0-4.7
					c0-3.1,2.5-5.7,5.7-5.7L52.8,34.8z"/>
			</g>
			<g class="st0">
				<defs>
					<path id="SVGID_29_" class="st0" d="M57.6,37.3c0.6,0.9,0.9,1.9,0.9,3l-3.6-5.5c0-1.1-0.3-2.2-0.9-3
						C55.1,33.5,56.5,35.7,57.6,37.3z"/>
				</defs>
				<clipPath id="SVGID_30_">
					<use xlink:href="#SVGID_29_"  style="overflow:visible;"/>
				</clipPath>
				<g class="st22">
					<g>
						<path class="st4" d="M52.8,34.8l-3.6-5.5c3.1,0,5.7,2.5,5.7,5.6l3.6,5.5C58.5,37.2,55.9,34.7,52.8,34.8z"/>
						<line class="st4" x1="57.7" y1="37.5" x2="54.1" y2="32.1"/>
					</g>
				</g>
				<path class="st23" d="M57.6,37.3c0.6,0.9,0.9,1.9,0.9,3l-3.6-5.5c0-1.1-0.3-2.2-0.9-3C55.1,33.5,56.5,35.7,57.6,37.3z"/>
			</g>
			<g class="st0">
				<defs>
					<path id="SVGID_31_" class="st0" d="M54,31.9l3.6,5.5c-1-1.6-2.8-2.6-4.8-2.6l-3.6-5.5C51.2,29.3,53,30.3,54,31.9z"/>
				</defs>
				<clipPath id="SVGID_32_">
					<use xlink:href="#SVGID_31_"  style="overflow:visible;"/>
				</clipPath>
				<g class="st24">
					<g>
						<path class="st4" d="M52.8,34.8l-3.6-5.5c3.1,0,5.7,2.5,5.7,5.6l3.6,5.5C58.5,37.2,55.9,34.7,52.8,34.8z"/>
						<line class="st4" x1="55.7" y1="35.5" x2="52.1" y2="30"/>
					</g>
				</g>
				<path class="st25" d="M54,31.9l3.6,5.5c-1-1.6-2.8-2.6-4.8-2.6l-3.6-5.5C51.2,29.3,53,30.3,54,31.9z"/>
			</g>
			<g class="st0">
				<defs>
					<polygon id="SVGID_33_" class="st0" points="58.5,40.3 58.5,45 55,39.5 54.9,34.9 					"/>
				</defs>
				<clipPath id="SVGID_34_">
					<use xlink:href="#SVGID_33_"  style="overflow:visible;"/>
				</clipPath>
				<polygon class="st26" points="58.5,40.3 58.5,45 55,39.5 54.9,34.9 				"/>
			</g>
			<g class="st0">
				<defs>
					<path id="SVGID_35_" class="st0" d="M58.5,45c0,3.1-2.5,5.7-5.7,5.7l-3.6-5.5c3.1,0,5.7-2.6,5.7-5.7L58.5,45z"/>
				</defs>
				<clipPath id="SVGID_36_">
					<use xlink:href="#SVGID_35_"  style="overflow:visible;"/>
				</clipPath>
				<g class="st27">
					<g>
						<path class="st4" d="M58.5,45L55,39.5c0,3.1-2.5,5.7-5.7,5.7l3.6,5.5C56,50.7,58.5,48.1,58.5,45z"/>
						<line class="st4" x1="57.8" y1="47.9" x2="54.2" y2="42.4"/>
						<line class="st4" x1="55.7" y1="49.9" x2="52.2" y2="44.5"/>
					</g>
				</g>
				<path class="st28" d="M58.5,45c0,3.1-2.5,5.7-5.7,5.7l-3.6-5.5c3.1,0,5.7-2.6,5.7-5.7L58.5,45z"/>
			</g>
			<g class="st0">
				<defs>
					<polygon id="SVGID_37_" class="st0" points="52.9,50.7 12.8,51.2 9.3,45.7 49.3,45.3 					"/>
				</defs>
				<clipPath id="SVGID_38_">
					<use xlink:href="#SVGID_37_"  style="overflow:visible;"/>
				</clipPath>
				<polygon class="st29" points="52.9,50.7 12.8,51.2 9.3,45.7 49.3,45.3 				"/>
			</g>
			<g class="st0">
				<defs>
					<path id="SVGID_39_" class="st0" d="M8.1,48.6l-3.6-5.5c-0.6-0.9-0.9-1.9-0.9-3l3.6,5.5C7.2,46.7,7.5,47.8,8.1,48.6z"/>
				</defs>
				<clipPath id="SVGID_40_">
					<use xlink:href="#SVGID_39_"  style="overflow:visible;"/>
				</clipPath>
				<g class="st30">
					<g>
						<path class="st4" d="M12.8,51.2l-3.6-5.5c-3.1,0-5.7-2.5-5.7-5.6l3.6,5.5C7.2,48.7,9.7,51.2,12.8,51.2z"/>
						<line class="st4" x1="7.9" y1="48.4" x2="4.4" y2="43"/>
					</g>
				</g>
				<path class="st31" d="M8.1,48.6l-3.6-5.5c-0.6-0.9-0.9-1.9-0.9-3l3.6,5.5C7.2,46.7,7.5,47.8,8.1,48.6z"/>
			</g>
			<g class="st0">
				<defs>
					<path id="SVGID_41_" class="st0" d="M4.5,43.2c1,1.6,2.8,2.6,4.8,2.6l3.6,5.5c-2,0-3.8-1-4.8-2.6C7,47,5.6,44.8,4.5,43.2z"/>
				</defs>
				<clipPath id="SVGID_42_">
					<use xlink:href="#SVGID_41_"  style="overflow:visible;"/>
				</clipPath>
				<g class="st32">
					<g>
						<path class="st4" d="M12.8,51.2l-3.6-5.5c-3.1,0-5.7-2.5-5.7-5.6l3.6,5.5C7.2,48.7,9.7,51.2,12.8,51.2z"/>
						<line class="st4" x1="10" y1="50.5" x2="6.4" y2="45"/>
					</g>
				</g>
				<path class="st33" d="M4.5,43.2c1,1.6,2.8,2.6,4.8,2.6l3.6,5.5c-2,0-3.8-1-4.8-2.6C7,47,5.6,44.8,4.5,43.2z"/>
			</g>
			<g class="st0">
				<defs>
					<polygon id="SVGID_43_" class="st0" points="7.2,45.6 3.6,40.2 3.6,35.5 7.1,41 					"/>
				</defs>
				<clipPath id="SVGID_44_">
					<use xlink:href="#SVGID_43_"  style="overflow:visible;"/>
				</clipPath>
				<polygon class="st34" points="7.2,45.6 3.6,40.2 3.6,35.5 7.1,41 				"/>
			</g>
			<g class="st0">
				<defs>
					<path id="SVGID_45_" class="st0" d="M7.1,41l-3.6-5.5c0-3.1,2.5-5.7,5.7-5.7l3.6,5.5C9.7,35.3,7.1,37.8,7.1,41z"/>
				</defs>
				<clipPath id="SVGID_46_">
					<use xlink:href="#SVGID_45_"  style="overflow:visible;"/>
				</clipPath>
				<g class="st35">
					<g>
						<path class="st4" d="M7.1,41l-3.6-5.5c0-3.1,2.5-5.7,5.7-5.7l3.6,5.5C9.7,35.3,7.1,37.8,7.1,41z"/>
						<line class="st4" x1="7.9" y1="38.1" x2="4.3" y2="32.6"/>
						<line class="st4" x1="9.9" y1="36" x2="6.4" y2="30.6"/>
					</g>
				</g>
				<path class="st36" d="M7.1,41l-3.6-5.5c0-3.1,2.5-5.7,5.7-5.7l3.6,5.5C9.7,35.3,7.1,37.8,7.1,41z"/>
			</g>
			<g class="st0">
				<defs>
					<polygon id="SVGID_47_" class="st0" points="12.8,35.2 9.2,29.8 49.2,29.3 52.8,34.8 					"/>
				</defs>
				<clipPath id="SVGID_48_">
					<use xlink:href="#SVGID_47_"  style="overflow:visible;"/>
				</clipPath>
				<polygon class="st37" points="12.8,35.2 9.2,29.8 49.2,29.3 52.8,34.8 				"/>
			</g>
		</g>
	</g>
</g>
</svg>
