<?xml version="1.0" encoding="utf-8"?>
<!-- Generator: Adobe Illustrator 22.0.1, SVG Export Plug-In . SVG Version: 6.00 Build 0)  -->
<svg version="1.1" id="Layer_1" xmlns="http://www.w3.org/2000/svg" xmlns:xlink="http://www.w3.org/1999/xlink" x="0px" y="0px"
	 viewBox="0 0 99.3 65.9" style="enable-background:new 0 0 99.3 65.9;" xml:space="preserve">
<style type="text/css">
	.st0{enable-background:new    ;}
	.st1{clip-path:url(#SVGID_2_);enable-background:new    ;}
	.st2{fill:none;stroke:#000000;stroke-width:0.25;stroke-miterlimit:10;}
	.st3{clip-path:url(#SVGID_2_);fill:none;stroke:#000000;stroke-width:0.25;stroke-miterlimit:10;}
	.st4{clip-path:url(#SVGID_4_);enable-background:new    ;}
	.st5{clip-path:url(#SVGID_4_);fill:none;stroke:#000000;stroke-width:0.25;stroke-miterlimit:10;}
	.st6{clip-path:url(#SVGID_6_);enable-background:new    ;}
	.st7{clip-path:url(#SVGID_6_);fill:none;stroke:#000000;stroke-width:0.25;stroke-miterlimit:10;}
	.st8{clip-path:url(#SVGID_8_);enable-background:new    ;}
	.st9{clip-path:url(#SVGID_8_);fill:none;stroke:#000000;stroke-width:0.25;stroke-miterlimit:10;}
	.st10{clip-path:url(#SVGID_10_);fill:none;stroke:#000000;stroke-width:0.25;stroke-miterlimit:10;}
	.st11{clip-path:url(#SVGID_12_);enable-background:new    ;}
	.st12{clip-path:url(#SVGID_12_);fill:none;stroke:#000000;stroke-width:0.25;stroke-miterlimit:10;}
	.st13{clip-path:url(#SVGID_14_);enable-background:new    ;}
	.st14{clip-path:url(#SVGID_14_);fill:none;stroke:#000000;stroke-width:0.25;stroke-miterlimit:10;}
	.st15{clip-path:url(#SVGID_16_);fill:none;stroke:#000000;stroke-width:0.25;stroke-miterlimit:10;}
	.st16{clip-path:url(#SVGID_18_);enable-background:new    ;}
	.st17{clip-path:url(#SVGID_18_);fill:none;stroke:#000000;stroke-width:0.25;stroke-miterlimit:10;}
	.st18{clip-path:url(#SVGID_20_);enable-background:new    ;}
	.st19{clip-path:url(#SVGID_20_);fill:none;stroke:#000000;stroke-width:0.25;stroke-miterlimit:10;}
	.st20{clip-path:url(#SVGID_22_);enable-background:new    ;}
	.st21{clip-path:url(#SVGID_22_);fill:none;stroke:#000000;stroke-width:0.25;stroke-miterlimit:10;}
	.st22{clip-path:url(#SVGID_24_);enable-background:new    ;}
	.st23{clip-path:url(#SVGID_24_);fill:none;stroke:#000000;stroke-width:0.25;stroke-miterlimit:10;}
	.st24{clip-path:url(#SVGID_26_);fill:none;stroke:#000000;stroke-width:0.25;stroke-miterlimit:10;}
	.st25{clip-path:url(#SVGID_28_);enable-background:new    ;}
	.st26{clip-path:url(#SVGID_28_);fill:none;stroke:#000000;stroke-width:0.25;stroke-miterlimit:10;}
	.st27{clip-path:url(#SVGID_30_);enable-background:new    ;}
	.st28{clip-path:url(#SVGID_30_);fill:none;stroke:#000000;stroke-width:0.25;stroke-miterlimit:10;}
	.st29{clip-path:url(#SVGID_32_);fill:none;stroke:#000000;stroke-width:0.25;stroke-miterlimit:10;}
	.st30{clip-path:url(#SVGID_34_);enable-background:new    ;}
	.st31{clip-path:url(#SVGID_34_);fill:none;stroke:#000000;stroke-width:0.25;stroke-miterlimit:10;}
	.st32{clip-path:url(#SVGID_36_);enable-background:new    ;}
	.st33{clip-path:url(#SVGID_36_);fill:none;stroke:#000000;stroke-width:0.25;stroke-miterlimit:10;}
	.st34{clip-path:url(#SVGID_38_);enable-background:new    ;}
	.st35{clip-path:url(#SVGID_38_);fill:none;stroke:#000000;stroke-width:0.25;stroke-miterlimit:10;}
	.st36{clip-path:url(#SVGID_40_);enable-background:new    ;}
	.st37{clip-path:url(#SVGID_40_);fill:none;stroke:#000000;stroke-width:0.25;stroke-miterlimit:10;}
	.st38{clip-path:url(#SVGID_42_);fill:none;stroke:#000000;stroke-width:0.25;stroke-miterlimit:10;}
	.st39{clip-path:url(#SVGID_44_);enable-background:new    ;}
	.st40{clip-path:url(#SVGID_44_);fill:none;stroke:#000000;stroke-width:0.25;stroke-miterlimit:10;}
	.st41{clip-path:url(#SVGID_46_);enable-background:new    ;}
	.st42{clip-path:url(#SVGID_46_);fill:none;stroke:#000000;stroke-width:0.25;stroke-miterlimit:10;}
	.st43{clip-path:url(#SVGID_48_);fill:none;stroke:#000000;stroke-width:0.25;stroke-miterlimit:10;}
	.st44{clip-path:url(#SVGID_50_);fill:none;stroke:#000000;stroke-width:0.25;stroke-miterlimit:10;}
	.st45{clip-path:url(#SVGID_52_);enable-background:new    ;}
	.st46{clip-path:url(#SVGID_52_);fill:none;stroke:#000000;stroke-width:0.25;stroke-miterlimit:10;}
	.st47{clip-path:url(#SVGID_54_);enable-background:new    ;}
	.st48{clip-path:url(#SVGID_54_);fill:none;stroke:#000000;stroke-width:0.25;stroke-miterlimit:10;}
	.st49{clip-path:url(#SVGID_56_);fill:none;stroke:#000000;stroke-width:0.25;stroke-miterlimit:10;}
	.st50{clip-path:url(#SVGID_58_);enable-background:new    ;}
	.st51{clip-path:url(#SVGID_58_);fill:none;stroke:#000000;stroke-width:0.25;stroke-miterlimit:10;}
</style>
<g>
	<g>
		<g class="st0">
			<g class="st0">
				<defs>
					<path id="SVGID_1_" class="st0" d="M90.3,16.3c1.3,1.3,2.1,3.1,2.1,5.1c0,2.7-1.5,5-3.8,6.3l-2.6-2.6c2.2-1.3,3.8-3.6,3.8-6.3
						c0-2-0.8-3.8-2.1-5.1C88.5,14.4,89.6,15.5,90.3,16.3z"/>
				</defs>
				<clipPath id="SVGID_2_">
					<use xlink:href="#SVGID_1_"  style="overflow:visible;"/>
				</clipPath>
				<g class="st1">
					<g>
						<path class="st2" d="M84.8,14l-2.6-2.6c4.2,0,7.6,3.3,7.6,7.4l2.6,2.6C92.5,17.3,89.1,14,84.8,14z"/>
						<line class="st2" x1="91.4" y1="17.7" x2="88.8" y2="15"/>
					</g>
					<g>
						<path class="st2" d="M92.5,21.4l-2.6-2.6c0,2.7-1.5,5-3.8,6.3l2.6,2.6C90.9,26.4,92.4,24,92.5,21.4z"/>
						<line class="st2" x1="92" y1="23.9" x2="89.4" y2="21.3"/>
						<line class="st2" x1="90.6" y1="26.1" x2="88" y2="23.5"/>
					</g>
				</g>
				<path class="st3" d="M90.3,16.3c1.3,1.3,2.1,3.1,2.1,5.1c0,2.7-1.5,5-3.8,6.3l-2.6-2.6c2.2-1.3,3.8-3.6,3.8-6.3
					c0-2-0.8-3.8-2.1-5.1C88.5,14.4,89.6,15.5,90.3,16.3z"/>
			</g>
			<g class="st0">
				<defs>
					<path id="SVGID_3_" class="st0" d="M87.7,13.7l2.6,2.6C89,14.9,87,14,84.8,14l-2.6-2.6C84.4,11.4,86.3,12.3,87.7,13.7z"/>
				</defs>
				<clipPath id="SVGID_4_">
					<use xlink:href="#SVGID_3_"  style="overflow:visible;"/>
				</clipPath>
				<g class="st4">
					<g>
						<path class="st2" d="M84.8,14l-2.6-2.6c4.2,0,7.6,3.3,7.6,7.4l2.6,2.6C92.5,17.3,89.1,14,84.8,14z"/>
						<line class="st2" x1="88.7" y1="15" x2="86.1" y2="12.4"/>
					</g>
				</g>
				<path class="st5" d="M87.7,13.7l2.6,2.6C89,14.9,87,14,84.8,14l-2.6-2.6C84.4,11.4,86.3,12.3,87.7,13.7z"/>
			</g>
			<g class="st0">
				<defs>
					<path id="SVGID_5_" class="st0" d="M87.4,19.3C86,17.9,84.1,17,81.9,17l-2.6-2.6c2.2,0,4.1,0.9,5.5,2.3
						C85.6,17.5,86.6,18.5,87.4,19.3z"/>
				</defs>
				<clipPath id="SVGID_6_">
					<use xlink:href="#SVGID_5_"  style="overflow:visible;"/>
				</clipPath>
				<g class="st6">
					<g>
						<path class="st2" d="M89.5,24.4l-2.6-2.6c0-4.1-3.4-7.4-7.6-7.4l2.6,2.6C86.1,17,89.5,20.4,89.5,24.4z"/>
						<line class="st2" x1="85.8" y1="18" x2="83.2" y2="15.4"/>
					</g>
				</g>
				<path class="st7" d="M87.4,19.3C86,17.9,84.1,17,81.9,17l-2.6-2.6c2.2,0,4.1,0.9,5.5,2.3C85.6,17.5,86.6,18.5,87.4,19.3z"/>
			</g>
			<g class="st0">
				<defs>
					<path id="SVGID_7_" class="st0" d="M84.8,16.7l2.6,2.6c1.3,1.3,2.1,3.1,2.1,5.1c0,1.2-0.3,2.3-0.8,3.3l-2.6-2.6
						c0.5-1,0.8-2.1,0.8-3.3C86.9,19.8,86.1,18,84.8,16.7z"/>
				</defs>
				<clipPath id="SVGID_8_">
					<use xlink:href="#SVGID_7_"  style="overflow:visible;"/>
				</clipPath>
				<g class="st8">
					<g>
						<path class="st2" d="M88.7,27.7l-2.6-2.6c0.5-1,0.8-2.1,0.8-3.3l2.6,2.6C89.5,25.6,89.2,26.7,88.7,27.7z"/>
						<line class="st2" x1="89.1" y1="26.7" x2="86.5" y2="24"/>
						<line class="st2" x1="89.4" y1="25.6" x2="86.8" y2="22.9"/>
					</g>
					<g>
						<path class="st2" d="M89.5,24.4l-2.6-2.6c0-4.1-3.4-7.4-7.6-7.4l2.6,2.6C86.1,17,89.5,20.4,89.5,24.4z"/>
						<line class="st2" x1="88.5" y1="20.7" x2="85.9" y2="18.1"/>
					</g>
				</g>
				<path class="st9" d="M84.8,16.7l2.6,2.6c1.3,1.3,2.1,3.1,2.1,5.1c0,1.2-0.3,2.3-0.8,3.3l-2.6-2.6c0.5-1,0.8-2.1,0.8-3.3
					C86.9,19.8,86.1,18,84.8,16.7z"/>
			</g>
			<g class="st0">
				<defs>
					<polygon id="SVGID_9_" class="st0" points="81.9,17 58.9,17 56.3,14.4 79.3,14.4 					"/>
				</defs>
				<clipPath id="SVGID_10_">
					<use xlink:href="#SVGID_9_"  style="overflow:visible;"/>
				</clipPath>
				<polygon class="st10" points="81.9,17 58.9,17 56.3,14.4 79.3,14.4 				"/>
			</g>
			<g class="st0">
				<defs>
					<path id="SVGID_11_" class="st0" d="M58.9,17c-1.4,0-2.8,0.4-4,1.1l-2.6-2.6c1.2-0.7,2.5-1.1,4-1.1L58.9,17z"/>
				</defs>
				<clipPath id="SVGID_12_">
					<use xlink:href="#SVGID_11_"  style="overflow:visible;"/>
				</clipPath>
				<g class="st11">
					<g>
						<path class="st2" d="M58.9,17l-2.6-2.6c-1.4,0-2.8,0.4-4,1.1l2.6,2.6C56.1,17.4,57.4,17,58.9,17z"/>
						<line class="st2" x1="57.5" y1="17.2" x2="54.9" y2="14.5"/>
						<line class="st2" x1="56.2" y1="17.5" x2="53.5" y2="14.9"/>
					</g>
				</g>
				<path class="st12" d="M58.9,17c-1.4,0-2.8,0.4-4,1.1l-2.6-2.6c1.2-0.7,2.5-1.1,4-1.1L58.9,17z"/>
			</g>
			<g class="st0">
				<defs>
					<path id="SVGID_13_" class="st0" d="M54.9,18.1l-2.6-2.6c1.3-2.4,3.9-4.1,6.9-4.1l2.6,2.6C58.8,14,56.2,15.7,54.9,18.1z"/>
				</defs>
				<clipPath id="SVGID_14_">
					<use xlink:href="#SVGID_13_"  style="overflow:visible;"/>
				</clipPath>
				<g class="st13">
					<g>
						<path class="st2" d="M54.9,18.1l-2.6-2.6c1.3-2.4,3.9-4.1,6.9-4.1l2.6,2.6C58.8,14,56.2,15.7,54.9,18.1z"/>
						<line class="st2" x1="56.6" y1="16" x2="54" y2="13.3"/>
						<line class="st2" x1="59" y1="14.5" x2="56.4" y2="11.9"/>
					</g>
				</g>
				<path class="st14" d="M54.9,18.1l-2.6-2.6c1.3-2.4,3.9-4.1,6.9-4.1l2.6,2.6C58.8,14,56.2,15.7,54.9,18.1z"/>
			</g>
			<g class="st0">
				<defs>
					<polygon id="SVGID_15_" class="st0" points="61.8,14 59.2,11.4 82.2,11.4 84.8,14 					"/>
				</defs>
				<clipPath id="SVGID_16_">
					<use xlink:href="#SVGID_15_"  style="overflow:visible;"/>
				</clipPath>
				<polygon class="st15" points="61.8,14 59.2,11.4 82.2,11.4 84.8,14 				"/>
			</g>
		</g>
	</g>
</g>
<g>
	<g>
		<g class="st0">
			<g class="st0">
				<defs>
					<path id="SVGID_17_" class="st0" d="M90.3,39.6c1.3,1.3,2.1,3.1,2.1,5.1c0,2.7-1.5,5-3.8,6.3l-2.6-2.6c2.2-1.3,3.8-3.6,3.8-6.3
						c0-2-0.8-3.8-2.1-5.1C88.5,37.8,89.6,38.8,90.3,39.6z"/>
				</defs>
				<clipPath id="SVGID_18_">
					<use xlink:href="#SVGID_17_"  style="overflow:visible;"/>
				</clipPath>
				<g class="st16">
					<g>
						<path class="st2" d="M84.8,37.3l-2.6-2.6c4.2,0,7.6,3.3,7.6,7.4l2.6,2.6C92.5,40.6,89.1,37.3,84.8,37.3z"/>
						<line class="st2" x1="91.4" y1="41" x2="88.8" y2="38.4"/>
					</g>
					<g>
						<path class="st2" d="M92.5,44.7l-2.6-2.6c0,2.7-1.5,5-3.8,6.3l2.6,2.6C90.9,49.7,92.4,47.4,92.5,44.7z"/>
						<line class="st2" x1="92" y1="47.2" x2="89.4" y2="44.6"/>
						<line class="st2" x1="90.6" y1="49.4" x2="88" y2="46.8"/>
					</g>
				</g>
				<path class="st17" d="M90.3,39.6c1.3,1.3,2.1,3.1,2.1,5.1c0,2.7-1.5,5-3.8,6.3l-2.6-2.6c2.2-1.3,3.8-3.6,3.8-6.3
					c0-2-0.8-3.8-2.1-5.1C88.5,37.8,89.6,38.8,90.3,39.6z"/>
			</g>
			<g class="st0">
				<defs>
					<path id="SVGID_19_" class="st0" d="M87.7,37l2.6,2.6c-1.4-1.4-3.3-2.3-5.5-2.3l-2.6-2.6C84.4,34.7,86.3,35.6,87.7,37z"/>
				</defs>
				<clipPath id="SVGID_20_">
					<use xlink:href="#SVGID_19_"  style="overflow:visible;"/>
				</clipPath>
				<g class="st18">
					<g>
						<path class="st2" d="M84.8,37.3l-2.6-2.6c4.2,0,7.6,3.3,7.6,7.4l2.6,2.6C92.5,40.6,89.1,37.3,84.8,37.3z"/>
						<line class="st2" x1="88.7" y1="38.3" x2="86.1" y2="35.7"/>
					</g>
				</g>
				<path class="st19" d="M87.7,37l2.6,2.6c-1.4-1.4-3.3-2.3-5.5-2.3l-2.6-2.6C84.4,34.7,86.3,35.6,87.7,37z"/>
			</g>
			<g class="st0">
				<defs>
					<path id="SVGID_21_" class="st0" d="M87.4,42.6c-1.4-1.4-3.3-2.3-5.5-2.3l-2.6-2.6c2.2,0,4.1,0.9,5.5,2.3
						C85.6,40.8,86.6,41.8,87.4,42.6z"/>
				</defs>
				<clipPath id="SVGID_22_">
					<use xlink:href="#SVGID_21_"  style="overflow:visible;"/>
				</clipPath>
				<g class="st20">
					<g>
						<path class="st2" d="M89.5,47.7l-2.6-2.6c0-4.1-3.4-7.4-7.6-7.4l2.6,2.6C86.1,40.4,89.5,43.7,89.5,47.7z"/>
						<line class="st2" x1="85.8" y1="41.4" x2="83.2" y2="38.7"/>
					</g>
				</g>
				<path class="st21" d="M87.4,42.6c-1.4-1.4-3.3-2.3-5.5-2.3l-2.6-2.6c2.2,0,4.1,0.9,5.5,2.3C85.6,40.8,86.6,41.8,87.4,42.6z"/>
			</g>
			<g class="st0">
				<defs>
					<path id="SVGID_23_" class="st0" d="M84.8,40l2.6,2.6c1.3,1.3,2.1,3.1,2.1,5.1c0,1.2-0.3,2.3-0.8,3.3l-2.6-2.6
						c0.5-1,0.8-2.1,0.8-3.3C86.9,43.1,86.1,41.3,84.8,40z"/>
				</defs>
				<clipPath id="SVGID_24_">
					<use xlink:href="#SVGID_23_"  style="overflow:visible;"/>
				</clipPath>
				<g class="st22">
					<g>
						<path class="st2" d="M88.7,51l-2.6-2.6c0.5-1,0.8-2.1,0.8-3.3l2.6,2.6C89.5,48.9,89.2,50,88.7,51z"/>
						<line class="st2" x1="89.1" y1="50" x2="86.5" y2="47.4"/>
						<line class="st2" x1="89.4" y1="48.9" x2="86.8" y2="46.3"/>
					</g>
					<g>
						<path class="st2" d="M89.5,47.7l-2.6-2.6c0-4.1-3.4-7.4-7.6-7.4l2.6,2.6C86.1,40.4,89.5,43.7,89.5,47.7z"/>
						<line class="st2" x1="88.5" y1="44" x2="85.9" y2="41.4"/>
					</g>
				</g>
				<path class="st23" d="M84.8,40l2.6,2.6c1.3,1.3,2.1,3.1,2.1,5.1c0,1.2-0.3,2.3-0.8,3.3l-2.6-2.6c0.5-1,0.8-2.1,0.8-3.3
					C86.9,43.1,86.1,41.3,84.8,40z"/>
			</g>
			<g class="st0">
				<defs>
					<polygon id="SVGID_25_" class="st0" points="81.9,40.4 58.9,40.4 56.3,37.7 79.3,37.7 					"/>
				</defs>
				<clipPath id="SVGID_26_">
					<use xlink:href="#SVGID_25_"  style="overflow:visible;"/>
				</clipPath>
				<polygon class="st24" points="81.9,40.4 58.9,40.4 56.3,37.7 79.3,37.7 				"/>
			</g>
			<g class="st0">
				<defs>
					<path id="SVGID_27_" class="st0" d="M58.9,40.4c-1.4,0-2.8,0.4-4,1.1l-2.6-2.6c1.2-0.7,2.5-1.1,4-1.1L58.9,40.4z"/>
				</defs>
				<clipPath id="SVGID_28_">
					<use xlink:href="#SVGID_27_"  style="overflow:visible;"/>
				</clipPath>
				<g class="st25">
					<g>
						<path class="st2" d="M58.9,40.4l-2.6-2.6c-1.4,0-2.8,0.4-4,1.1l2.6,2.6C56.1,40.7,57.4,40.4,58.9,40.4z"/>
						<line class="st2" x1="57.5" y1="40.5" x2="54.9" y2="37.9"/>
						<line class="st2" x1="56.2" y1="40.8" x2="53.5" y2="38.2"/>
					</g>
				</g>
				<path class="st26" d="M58.9,40.4c-1.4,0-2.8,0.4-4,1.1l-2.6-2.6c1.2-0.7,2.5-1.1,4-1.1L58.9,40.4z"/>
			</g>
			<g class="st0">
				<defs>
					<path id="SVGID_29_" class="st0" d="M54.9,41.4l-2.6-2.6c1.3-2.4,3.9-4.1,6.9-4.1l2.6,2.6C58.8,37.3,56.2,39,54.9,41.4z"/>
				</defs>
				<clipPath id="SVGID_30_">
					<use xlink:href="#SVGID_29_"  style="overflow:visible;"/>
				</clipPath>
				<g class="st27">
					<g>
						<path class="st2" d="M54.9,41.4l-2.6-2.6c1.3-2.4,3.9-4.1,6.9-4.1l2.6,2.6C58.8,37.3,56.2,39,54.9,41.4z"/>
						<line class="st2" x1="56.6" y1="39.3" x2="54" y2="36.7"/>
						<line class="st2" x1="59" y1="37.8" x2="56.4" y2="35.2"/>
					</g>
				</g>
				<path class="st28" d="M54.9,41.4l-2.6-2.6c1.3-2.4,3.9-4.1,6.9-4.1l2.6,2.6C58.8,37.3,56.2,39,54.9,41.4z"/>
			</g>
			<g class="st0">
				<defs>
					<polygon id="SVGID_31_" class="st0" points="61.8,37.3 59.2,34.7 82.2,34.7 84.8,37.3 					"/>
				</defs>
				<clipPath id="SVGID_32_">
					<use xlink:href="#SVGID_31_"  style="overflow:visible;"/>
				</clipPath>
				<polygon class="st29" points="61.8,37.3 59.2,34.7 82.2,34.7 84.8,37.3 				"/>
			</g>
		</g>
	</g>
</g>
<g>
	<g>
		<g class="st0">
			<g class="st0">
				<defs>
					<path id="SVGID_33_" class="st0" d="M47.8,15.3c1.4,1.4,2.2,3.3,2.2,5.4c0,2.8-1.5,5.2-3.8,6.6l-2.6-2.6
						c2.2-1.3,3.8-3.8,3.8-6.6c0-2.1-0.8-4-2.2-5.4C46,13.5,47,14.5,47.8,15.3z"/>
				</defs>
				<clipPath id="SVGID_34_">
					<use xlink:href="#SVGID_33_"  style="overflow:visible;"/>
				</clipPath>
				<g class="st30">
					<g>
						<path class="st2" d="M42.4,13.1l-2.6-2.6c4.2,0,7.6,3.5,7.6,7.7l2.6,2.6C50,16.5,46.6,13.1,42.4,13.1z"/>
						<line class="st2" x1="49" y1="16.9" x2="46.4" y2="14.2"/>
					</g>
					<g>
						<path class="st2" d="M50,20.7l-2.6-2.6c0,2.8-1.5,5.2-3.8,6.6l2.6,2.6C48.5,25.9,50,23.5,50,20.7z"/>
						<line class="st2" x1="49.5" y1="23.4" x2="46.9" y2="20.7"/>
						<line class="st2" x1="48.2" y1="25.6" x2="45.6" y2="23"/>
					</g>
				</g>
				<path class="st31" d="M47.8,15.3c1.4,1.4,2.2,3.3,2.2,5.4c0,2.8-1.5,5.2-3.8,6.6l-2.6-2.6c2.2-1.3,3.8-3.8,3.8-6.6
					c0-2.1-0.8-4-2.2-5.4C46,13.5,47,14.5,47.8,15.3z"/>
			</g>
			<g class="st0">
				<defs>
					<path id="SVGID_35_" class="st0" d="M45.2,12.7l2.6,2.6c-1.4-1.4-3.3-2.2-5.4-2.2l-2.6-2.6C41.9,10.4,43.8,11.3,45.2,12.7z"/>
				</defs>
				<clipPath id="SVGID_36_">
					<use xlink:href="#SVGID_35_"  style="overflow:visible;"/>
				</clipPath>
				<g class="st32">
					<g>
						<path class="st2" d="M42.4,13.1l-2.6-2.6c4.2,0,7.6,3.5,7.6,7.7l2.6,2.6C50,16.5,46.6,13.1,42.4,13.1z"/>
						<line class="st2" x1="46.3" y1="14.1" x2="43.7" y2="11.5"/>
					</g>
				</g>
				<path class="st33" d="M45.2,12.7l2.6,2.6c-1.4-1.4-3.3-2.2-5.4-2.2l-2.6-2.6C41.9,10.4,43.8,11.3,45.2,12.7z"/>
			</g>
			<g class="st0">
				<defs>
					<path id="SVGID_37_" class="st0" d="M44.9,18.5c-1.4-1.4-3.3-2.2-5.4-2.2l-2.6-2.6c2.1,0,4,0.9,5.4,2.2
						C43,16.6,44.1,17.7,44.9,18.5z"/>
				</defs>
				<clipPath id="SVGID_38_">
					<use xlink:href="#SVGID_37_"  style="overflow:visible;"/>
				</clipPath>
				<g class="st34">
					<g>
						<path class="st2" d="M47.1,23.9l-2.6-2.6c0-4.2-3.4-7.7-7.6-7.7l2.6,2.6C43.7,16.2,47.1,19.7,47.1,23.9z"/>
						<line class="st2" x1="43.3" y1="17.3" x2="40.7" y2="14.6"/>
					</g>
				</g>
				<path class="st35" d="M44.9,18.5c-1.4-1.4-3.3-2.2-5.4-2.2l-2.6-2.6c2.1,0,4,0.9,5.4,2.2C43,16.6,44.1,17.7,44.9,18.5z"/>
			</g>
			<g class="st0">
				<defs>
					<path id="SVGID_39_" class="st0" d="M42.3,15.8l2.6,2.6c1.4,1.4,2.2,3.3,2.2,5.4c0,1.2-0.3,2.4-0.8,3.4l-2.6-2.6
						c0.5-1,0.8-2.2,0.8-3.4C44.5,19.1,43.6,17.2,42.3,15.8z"/>
				</defs>
				<clipPath id="SVGID_40_">
					<use xlink:href="#SVGID_39_"  style="overflow:visible;"/>
				</clipPath>
				<g class="st36">
					<g>
						<path class="st2" d="M46.2,27.3l-2.6-2.6c0.5-1,0.8-2.2,0.8-3.4l2.6,2.6C47.1,25.1,46.8,26.2,46.2,27.3z"/>
						<line class="st2" x1="46.7" y1="26.2" x2="44.1" y2="23.6"/>
						<line class="st2" x1="47" y1="25.1" x2="44.4" y2="22.5"/>
					</g>
					<g>
						<path class="st2" d="M47.1,23.9l-2.6-2.6c0-4.2-3.4-7.7-7.6-7.7l2.6,2.6C43.7,16.2,47.1,19.7,47.1,23.9z"/>
						<line class="st2" x1="46.1" y1="20" x2="43.5" y2="17.4"/>
					</g>
				</g>
				<path class="st37" d="M42.3,15.8l2.6,2.6c1.4,1.4,2.2,3.3,2.2,5.4c0,1.2-0.3,2.4-0.8,3.4l-2.6-2.6c0.5-1,0.8-2.2,0.8-3.4
					C44.5,19.1,43.6,17.2,42.3,15.8z"/>
			</g>
			<g class="st0">
				<defs>
					<polygon id="SVGID_41_" class="st0" points="39.5,16.2 10.5,16.2 7.9,13.6 36.9,13.6 					"/>
				</defs>
				<clipPath id="SVGID_42_">
					<use xlink:href="#SVGID_41_"  style="overflow:visible;"/>
				</clipPath>
				<polygon class="st38" points="39.5,16.2 10.5,16.2 7.9,13.6 36.9,13.6 				"/>
			</g>
			<g class="st0">
				<defs>
					<path id="SVGID_43_" class="st0" d="M10.5,16.2c-1.4,0-2.8,0.4-4,1.1l-2.6-2.6c1.2-0.7,2.5-1.1,4-1.1L10.5,16.2z"/>
				</defs>
				<clipPath id="SVGID_44_">
					<use xlink:href="#SVGID_43_"  style="overflow:visible;"/>
				</clipPath>
				<g class="st39">
					<g>
						<path class="st2" d="M10.5,16.2l-2.6-2.6c-1.4,0-2.8,0.4-4,1.1l2.6,2.6C7.7,16.6,9,16.2,10.5,16.2z"/>
						<line class="st2" x1="9.1" y1="16.3" x2="6.5" y2="13.7"/>
						<line class="st2" x1="7.7" y1="16.7" x2="5.1" y2="14.1"/>
					</g>
				</g>
				<path class="st40" d="M10.5,16.2c-1.4,0-2.8,0.4-4,1.1l-2.6-2.6c1.2-0.7,2.5-1.1,4-1.1L10.5,16.2z"/>
			</g>
			<g class="st0">
				<defs>
					<path id="SVGID_45_" class="st0" d="M6.5,17.3l-2.6-2.6c1.3-2.5,3.9-4.3,6.9-4.3l2.6,2.6C10.4,13.1,7.8,14.8,6.5,17.3z"/>
				</defs>
				<clipPath id="SVGID_46_">
					<use xlink:href="#SVGID_45_"  style="overflow:visible;"/>
				</clipPath>
				<g class="st41">
					<g>
						<path class="st2" d="M6.5,17.3l-2.6-2.6c1.3-2.5,3.9-4.3,6.9-4.3l2.6,2.6C10.4,13.1,7.8,14.8,6.5,17.3z"/>
						<line class="st2" x1="8.2" y1="15.1" x2="5.6" y2="12.5"/>
						<line class="st2" x1="10.6" y1="13.6" x2="8" y2="11"/>
					</g>
				</g>
				<path class="st42" d="M6.5,17.3l-2.6-2.6c1.3-2.5,3.9-4.3,6.9-4.3l2.6,2.6C10.4,13.1,7.8,14.8,6.5,17.3z"/>
			</g>
			<g class="st0">
				<defs>
					<polygon id="SVGID_47_" class="st0" points="13.4,13.1 10.8,10.4 39.8,10.4 42.4,13.1 					"/>
				</defs>
				<clipPath id="SVGID_48_">
					<use xlink:href="#SVGID_47_"  style="overflow:visible;"/>
				</clipPath>
				<polygon class="st43" points="13.4,13.1 10.8,10.4 39.8,10.4 42.4,13.1 				"/>
			</g>
		</g>
	</g>
</g>
<g>
	<g>
		<g class="st0">
			<g class="st0">
				<defs>
					<polygon id="SVGID_49_" class="st0" points="31.6,28.6 31.5,44.1 28.9,41.4 29,26 					"/>
				</defs>
				<clipPath id="SVGID_50_">
					<use xlink:href="#SVGID_49_"  style="overflow:visible;"/>
				</clipPath>
				<polygon class="st44" points="31.6,28.6 31.5,44.1 28.9,41.4 29,26 				"/>
			</g>
			<g class="st0">
				<defs>
					<path id="SVGID_51_" class="st0" d="M31.5,44.1c0,3.4-2.2,6.2-5.3,7.3l-2.6-2.6c3-1,5.2-3.9,5.3-7.3L31.5,44.1z"/>
				</defs>
				<clipPath id="SVGID_52_">
					<use xlink:href="#SVGID_51_"  style="overflow:visible;"/>
				</clipPath>
				<g class="st45">
					<g>
						<path class="st2" d="M31.5,44.1l-2.6-2.6c0,3.4-2.2,6.2-5.3,7.3l2.6,2.6C29.3,50.3,31.5,47.4,31.5,44.1z"/>
						<line class="st2" x1="30.8" y1="47.2" x2="28.2" y2="44.6"/>
						<line class="st2" x1="29" y1="49.7" x2="26.4" y2="47.1"/>
					</g>
				</g>
				<path class="st46" d="M31.5,44.1c0,3.4-2.2,6.2-5.3,7.3l-2.6-2.6c3-1,5.2-3.9,5.3-7.3L31.5,44.1z"/>
			</g>
			<g class="st0">
				<defs>
					<path id="SVGID_53_" class="st0" d="M26.3,51.3l-2.6-2.6c1.3-1.4,2.1-3.2,2.1-5.2l2.6,2.6C28.3,48.1,27.5,49.9,26.3,51.3z"/>
				</defs>
				<clipPath id="SVGID_54_">
					<use xlink:href="#SVGID_53_"  style="overflow:visible;"/>
				</clipPath>
				<g class="st47">
					<g>
						<path class="st2" d="M26.3,51.3l-2.6-2.6c1.3-1.4,2.1-3.2,2.1-5.2l2.6,2.6C28.3,48.1,27.5,49.9,26.3,51.3z"/>
						<line class="st2" x1="27.4" y1="49.8" x2="24.8" y2="47.2"/>
						<line class="st2" x1="28.1" y1="48.1" x2="25.5" y2="45.4"/>
					</g>
				</g>
				<path class="st48" d="M26.3,51.3l-2.6-2.6c1.3-1.4,2.1-3.2,2.1-5.2l2.6,2.6C28.3,48.1,27.5,49.9,26.3,51.3z"/>
			</g>
			<g class="st0">
				<defs>
					<polygon id="SVGID_55_" class="st0" points="28.4,46.1 25.7,43.5 25.9,29.2 28.5,31.8 					"/>
				</defs>
				<clipPath id="SVGID_56_">
					<use xlink:href="#SVGID_55_"  style="overflow:visible;"/>
				</clipPath>
				<polygon class="st49" points="28.4,46.1 25.7,43.5 25.9,29.2 28.5,31.8 				"/>
			</g>
			<g class="st0">
				<defs>
					<path id="SVGID_57_" class="st0" d="M28.5,31.8l-2.6-2.6c0-1.7,1.4-3.1,3.2-3.1l2.6,2.6C29.9,28.6,28.5,30,28.5,31.8z"/>
				</defs>
				<clipPath id="SVGID_58_">
					<use xlink:href="#SVGID_57_"  style="overflow:visible;"/>
				</clipPath>
				<g class="st50">
					<g>
						<path class="st2" d="M28.5,31.8l-2.6-2.6c0-1.7,1.4-3.1,3.2-3.1l2.6,2.6C29.9,28.6,28.5,30,28.5,31.8z"/>
						<line class="st2" x1="28.9" y1="30.2" x2="26.3" y2="27.6"/>
						<line class="st2" x1="30" y1="29.1" x2="27.4" y2="26.5"/>
					</g>
				</g>
				<path class="st51" d="M28.5,31.8l-2.6-2.6c0-1.7,1.4-3.1,3.2-3.1l2.6,2.6C29.9,28.6,28.5,30,28.5,31.8z"/>
			</g>
		</g>
	</g>
</g>
</svg>
